<?xml version="1.0" encoding="UTF-8" standalone="no"?>
<svg class="svg-icon"
     version="1.1"
     height="800"
     width="800"
     y="0px"
     x="0px"
     viewBox="0 0 800 800">
    <g>
        <path d="M 270.70312 40.007812 L 270.7168 40.009766 C 267.0759 40.122756 263.15425 41.467528 258.70703 44.976562 C 247.81234 40.775317 237.25078 39.316156 227.80469 47.869141 C 213.21809 45.977107 208.4761 49.88139 204.88477 54.439453 C 201.68276 54.373063 180.92382 51.147344 171.4043 65.347656 C 147.48126 62.516855 139.92142 79.420061 148.48828 95.181641 C 143.60238 102.74556 138.5387 110.2171 149.96484 124.63672 C 145.92284 132.6679 148.42779 141.38022 157.94922 151.92383 C 155.4364 163.21386 160.37683 171.18082 169.23633 177.38867 C 167.57939 192.83842 183.40386 201.82047 188.12891 205.02148 C 189.94339 214.02363 193.72537 222.51601 211.80078 227.21289 C 214.78168 240.62855 225.6446 242.94795 236.16406 245.76367 C 201.39564 265.97367 171.57905 292.56224 171.78125 357.80664 L 166.68945 366.89258 C 126.82276 391.13653 90.954969 469.06042 147.04297 532.39648 C 150.70662 552.2222 156.85139 566.46012 162.32227 582.2207 C 170.50465 645.72879 223.90561 675.46945 237.99023 678.98633 C 258.62977 694.70767 280.6108 709.62518 310.35742 720.07422 C 338.3989 748.99494 368.77885 760.01615 399.32422 759.99805 C 399.77203 759.99777 400.22786 760.00305 400.67578 759.99805 C 431.22114 760.01705 461.6001 748.99594 489.64258 720.07422 C 519.38819 709.62518 541.37023 694.70767 562.00977 678.98633 C 576.09439 675.46955 629.49514 645.72879 637.67773 582.2207 C 643.1481 566.46012 649.29327 552.2222 652.95703 532.39648 C 709.04402 469.05539 673.17629 391.12676 633.30859 366.88281 L 628.20898 357.79883 C 628.41084 292.55946 598.59458 265.96894 563.82617 245.75391 C 574.34562 242.9388 585.20875 240.62134 588.18945 227.20508 C 606.26477 222.50739 610.04756 214.01317 611.86133 205.01172 C 616.58718 201.81142 632.41271 192.82865 630.75586 177.37891 C 639.61517 171.17045 644.55393 163.20308 642.04102 151.91406 C 651.56245 141.37045 654.06789 132.65863 650.02539 124.62695 C 661.45325 110.21337 656.38288 102.74361 651.50391 95.179688 C 660.06475 79.418108 652.51022 62.5149 628.57812 65.345703 C 619.06163 51.145397 598.30866 54.371105 595.09961 54.4375 C 591.50829 49.879436 586.77019 45.975153 572.18359 47.867188 C 562.7375 39.314203 552.17594 40.773263 541.28125 44.974609 C 528.34445 34.765995 519.78392 42.948898 510.00586 46.042969 C 494.34287 40.924879 490.76013 47.936266 483.06445 50.791016 C 465.98302 47.181484 460.79214 55.03974 452.60352 63.333984 L 443.07812 63.144531 C 417.31415 78.327681 404.51545 109.2453 399.97852 125.13867 C 395.43946 109.24228 382.6691 78.324661 356.91016 63.144531 L 347.38477 63.333984 C 339.18609 55.03974 333.99548 47.181584 316.91406 50.791016 C 309.21837 47.936266 305.64766 40.924879 289.97461 46.042969 C 283.5568 44.012413 277.65339 39.792131 270.70312 40.007812 z M 529.91406 58.248047 C 526.33687 62.671015 521.33974 66.989343 526.64062 72.070312 C 533.947 67.438502 541.29837 62.811673 558.65039 59.519531 C 554.74008 63.945103 546.65708 68.371285 551.55859 72.796875 C 560.73204 69.239755 570.8816 66.657713 582.11328 65.158203 C 576.73515 69.648873 572.24818 74.047041 576.65625 77.525391 C 586.47353 74.459451 599.99642 70.328389 613.21289 73.886719 L 604.84766 82.435547 C 603.91915 83.579497 624.41693 83.326424 637.94727 83.527344 C 633.00945 90.490684 627.97491 97.209913 625.03516 109.16992 C 626.37612 110.54921 633.08237 109.78293 639.4043 109.16992 C 632.92182 123.02458 621.6612 126.52247 619.0332 132.45117 C 622.99371 135.49514 628.48888 134.70455 634.49414 132.63477 C 629.82743 142.39573 620.04036 149.08268 612.30664 157.00391 C 614.26225 158.41266 617.67566 159.25366 625.76367 158.27734 C 618.61824 165.98712 609.98466 173.03666 599.75391 179.375 C 601.56566 181.50032 607.79666 181.41517 613.57617 181.55664 C 604.30915 190.7643 592.38346 195.53853 581.20508 201.5625 C 586.77696 205.42694 590.75876 204.52538 595.02539 204.47266 C 587.11944 211.06642 573.67737 214.49819 561.19727 218.47852 C 563.57077 222.22316 565.94531 223.24564 571.01953 224.29688 C 557.8101 231.71794 538.88892 228.32487 533.55273 232.11719 C 534.84097 235.84724 538.47386 238.276 542.82812 240.30273 C 521.56186 241.55617 463.40211 239.51729 452.25391 194.83398 C 474.02232 170.55073 513.75676 142.05191 582.09766 106.81055 C 528.92498 124.87816 480.94789 148.96143 440.79492 182.10156 C 393.58513 159.78706 426.13039 103.50679 449.16211 81.162109 C 450.32997 87.062449 451.65144 90.792648 453.16211 91.892578 C 460.66165 83.732128 466.78943 75.376568 476.44336 67.523438 C 476.47476 72.135828 474.15091 77.139198 479.89844 80.798828 C 485.07417 73.729858 492.07002 67.420891 501.35938 62.066406 C 496.88511 69.899521 500.59061 72.279021 502.99609 75.525391 C 510.09121 69.349721 516.83038 63.093825 529.91406 58.248047 z M 271.62695 58.253906 C 284.71064 63.099679 291.4498 69.353637 298.54492 75.529297 C 300.9504 72.282927 304.65786 69.903424 300.18359 62.070312 C 309.47294 67.424803 316.46879 73.735717 321.64453 80.804688 C 327.39205 77.145058 325.06627 72.139734 325.09766 67.527344 C 334.75158 75.380474 340.87938 83.737988 348.37891 91.898438 C 349.88958 90.798507 351.21303 87.066356 352.38086 81.166016 C 375.41261 103.5107 407.95784 159.79097 360.74805 182.10547 C 320.59137 148.98674 272.63528 124.90876 219.49414 106.84375 C 287.80245 142.06635 327.52183 170.56362 349.2832 194.83398 C 338.135 239.51729 279.97524 241.55617 258.70898 240.30273 C 263.06324 238.276 266.69612 235.84724 267.98438 232.11719 C 262.64819 228.32487 243.72701 231.71795 230.51758 224.29688 C 235.59182 223.24563 237.96635 222.22316 240.33984 218.47852 C 227.85974 214.49819 214.41571 211.06642 206.50977 204.47266 C 210.7764 204.52536 214.76015 205.42694 220.33203 201.5625 C 209.15367 195.53853 197.22796 190.7643 187.96094 181.55664 C 193.74045 181.41517 199.96949 181.50038 201.78125 179.375 C 191.5505 173.03662 182.91886 165.98712 175.77344 158.27734 C 183.86146 159.25366 187.27486 158.41266 189.23047 157.00391 C 181.49675 149.08268 171.70968 142.39573 167.04297 132.63477 C 173.04823 134.70455 178.54144 135.49514 182.50195 132.45117 C 179.87395 126.52247 168.6153 123.02458 162.13281 109.16992 C 168.45475 109.78293 175.16099 110.54921 176.50195 109.16992 C 173.56753 97.214938 168.53207 90.49459 163.59375 83.53125 C 177.12408 83.33006 197.62382 83.585166 196.69531 82.441406 L 188.33008 73.892578 C 201.54655 70.334248 215.06943 74.463337 224.88672 77.529297 C 229.29478 74.050937 224.80782 69.654732 219.42969 65.164062 C 230.66137 66.663562 240.81091 69.245614 249.98438 72.802734 C 254.88587 68.377154 246.8029 63.949016 242.89258 59.523438 C 260.2446 62.815587 267.59597 67.442419 274.90234 72.074219 C 280.20322 66.993249 275.20415 62.676869 271.62695 58.253906 z M 396.19141 242.30859 C 397.36634 242.28199 398.54172 242.28365 399.7207 242.31445 C 433.19745 241.94626 474.64824 267.29398 474.48242 291.17578 C 474.33655 312.25494 445.37101 329.31929 399.97852 328.99414 C 355.52861 328.46399 325.59397 307.55029 325.69922 287.125 C 325.78402 270.8405 359.76815 243.13224 396.19141 242.30859 z M 288.62109 256.50586 C 295.22341 256.54176 302.00768 257.13338 308.92188 258.30078 C 332.21013 262.21402 197.31763 380.00258 195.23828 353.72656 C 193.34784 292.68584 234.85936 256.21358 288.62109 256.50586 z M 503.87305 258.51758 C 557.63211 258.22397 599.1463 294.69025 597.25586 355.73633 C 595.17663 382.01336 460.28204 264.22474 483.57031 260.3125 C 490.48392 259.1451 497.27106 258.55364 503.87305 258.51758 z M 481.15625 331.66992 A 86.64412 73.434843 55.965848 0 1 484.36133 331.71289 A 86.64412 73.434843 55.965848 0 1 541.39258 486.68555 A 86.64412 73.434843 55.965848 1 1 445.85938 342.11523 A 86.64412 73.434843 55.965848 0 1 481.15625 331.66992 z M 315.78516 335.73633 A 73.434843 86.64412 34.034152 0 1 315.78906 335.73633 A 73.434843 86.64412 34.034152 0 1 354.29102 346.13867 A 73.435281 86.644637 34.034152 1 1 258.75586 490.70898 A 73.434843 86.64412 34.034152 0 1 315.78516 335.73633 z M 604.76172 380.03711 C 605.7892 380.02011 606.87479 380.15812 608.01953 380.46484 C 668.79636 415.17091 658.23866 492.398 625.45703 518.76758 C 596.58641 531.59248 572.90975 380.56537 604.76172 380.03711 z M 187.99414 382.04688 C 219.84269 382.57187 196.16945 533.59442 167.29883 520.76953 C 134.5172 494.40298 123.95949 417.18264 184.73633 382.47656 C 185.88094 382.16974 186.96677 382.02993 187.99414 382.04688 z M 403.625 485.9375 A 81.876045 75.49969 0 0 1 483.54102 561.8125 A 81.876045 75.49969 0 1 1 319.79102 561.8125 A 81.876045 75.49969 0 0 1 403.625 485.9375 z M 582.63281 514.41406 C 589.02822 514.24734 595.01407 516.04346 600.41211 520.21875 C 614.94761 534.70276 623.47443 589.24343 598.02734 621.90234 C 562.98229 670.52906 515.54011 672.42333 497.86719 658.87891 C 479.38344 641.44539 493.49069 587.31689 518.82812 557.63867 L 518.82812 557.62891 C 540.57374 533.0758 563.44659 514.91421 582.63281 514.41406 z M 212.53125 525.97266 C 233.63526 525.53936 259.53863 542.21824 280.53516 566.58008 C 303.9532 594.7936 314.627 644.3609 295.08398 658.97266 C 276.59521 670.12688 231.69668 665.53331 199.7832 619.6875 C 178.26042 581.21707 181.03271 542.06864 196.14453 530.56836 C 201.08788 527.55711 206.62211 526.09398 212.53125 525.97266 z M 408.31055 661.04883 C 440.26222 661.24607 479.05951 672.75354 479.14062 687.71484 C 479.68656 703.21186 439.11288 738.2278 399.84375 737.55078 C 359.17528 739.30509 319.29626 704.23526 319.81836 692.08008 C 319.20969 674.25827 369.33832 660.3423 402.02539 661.16016 C 404.08115 661.07046 406.18045 661.03568 408.31055 661.04883 z " />
    </g>
</svg>