<?xml version="1.0" standalone="no"?>
<!DOCTYPE svg PUBLIC "-//W3C//DTD SVG 20010904//EN"
 "http://www.w3.org/TR/2001/REC-SVG-20010904/DTD/svg10.dtd">
<svg version="1.0" xmlns="http://www.w3.org/2000/svg"
 width="3513.000000pt" height="1097.000000pt" viewBox="0 0 3513.000000 1097.000000"
 preserveAspectRatio="xMidYMid meet">
<metadata>
Created by potrace 1.12, written by Peter Selinger 2001-2015
</metadata>
<g transform="translate(0.000000,1097.000000) scale(0.100000,-0.100000)"
fill="#000000" stroke="none">
<path d="M0 10458 c0 -281 2 -509 4 -507 12 12 19 178 20 524 3 401 0 495 -15
495 -5 0 -9 -212 -9 -512z"/>
<path d="M1 9924 c0 -11 3 -14 6 -6 3 7 2 16 -1 19 -3 4 -6 -2 -5 -13z"/>
<path d="M3580 9836 c0 -2 8 -10 18 -17 15 -13 16 -12 3 4 -13 16 -21 21 -21
13z"/>
<path d="M17247 8722 c-11 -12 -17 -48 -21 -132 -4 -63 -8 -153 -11 -200 -2
-47 -7 -148 -10 -225 -10 -251 -34 -657 -39 -662 -2 -3 -19 -13 -38 -22 l-33
-18 -1 -119 c-1 -66 2 -283 7 -484 12 -553 12 -583 0 -755 -6 -88 -15 -239
-21 -335 -6 -96 -13 -211 -16 -255 -3 -44 -7 -109 -9 -145 -6 -122 -26 -274
-37 -287 -6 -8 -18 -11 -27 -7 -9 4 -24 6 -33 6 -10 0 -22 7 -26 16 -4 9 -7
127 -7 262 1 135 -2 255 -6 267 -4 12 -18 23 -31 25 -20 3 -25 13 -37 70 -8
37 -10 75 -6 85 8 18 8 121 0 134 -3 3 0 20 4 37 7 22 5 38 -6 59 -8 15 -17
57 -19 93 -2 36 -7 75 -9 88 -6 27 -51 48 -70 32 -6 -5 -15 -7 -18 -3 -9 8
-314 11 -347 3 -27 -7 -28 -14 -45 -294 -2 -38 -6 -70 -7 -72 -6 -6 -168 -10
-176 -5 -5 3 -15 20 -23 36 -13 28 -19 30 -72 33 -55 3 -63 -1 -58 -30 0 -5
-7 -8 -17 -8 -10 0 -28 -9 -40 -20 -23 -22 -115 -29 -127 -10 -4 6 -8 69 -9
140 -3 151 -7 160 -76 160 -33 0 -54 6 -70 20 -17 15 -37 20 -80 20 -60 0 -70
-7 -70 -51 0 -19 -14 -24 -56 -20 -12 1 -32 -2 -44 -7 l-23 -9 -3 -324 c-2
-178 -4 -337 -4 -353 0 -28 -1 -28 -19 -12 -18 16 -40 18 -163 15 -7 -1 -75 1
-151 2 -93 2 -141 -1 -148 -8 -7 -7 -12 -43 -13 -82 -1 -38 -3 -72 -6 -74 -3
-3 -21 -8 -40 -12 l-36 -6 3 83 c2 46 3 157 3 248 -1 91 -1 176 0 188 0 13 -9
37 -20 52 -11 15 -20 40 -20 54 0 15 -6 37 -14 49 -10 15 -14 52 -14 120 0 54
-3 101 -6 104 -8 8 -339 13 -383 6 l-33 -5 4 -76 c3 -75 -15 -200 -34 -234 -8
-14 -17 -1146 -10 -1183 1 -5 -1 -20 -5 -32 -10 -31 -53 -28 -61 4 -5 18 -13
23 -39 23 -30 0 -33 -3 -39 -39 l-6 -40 -46 3 c-31 3 -52 10 -65 25 -23 24
-46 23 -41 -3 5 -26 -27 -19 -38 9 -15 40 -40 32 -40 -13 0 -47 -8 -57 -31
-36 -16 14 -19 14 -41 0 -20 -13 -31 -14 -57 -5 -40 14 -84 -1 -75 -26 4 -9 1
-15 -7 -15 -24 0 -38 14 -54 53 -10 25 -22 37 -35 37 -21 0 -41 -35 -33 -57 9
-23 -12 -14 -56 23 -37 32 -45 35 -67 26 -13 -7 -24 -18 -24 -27 0 -16 -52
-34 -57 -19 -2 5 -11 25 -21 44 -15 30 -22 34 -60 36 -33 2 -46 -2 -55 -17
-13 -21 -37 -25 -54 -8 -7 7 -38 13 -70 14 -65 2 -103 15 -151 51 -20 16 -43
24 -60 23 -15 -2 -36 2 -48 9 -15 8 -24 8 -32 0 -8 -8 -18 -5 -38 11 -36 29
-49 27 -89 -14 -33 -35 -35 -35 -58 -20 -14 8 -50 17 -82 19 -65 3 -84 19
-127 104 -28 54 -45 69 -60 54 -7 -7 -19 -12 -27 -12 -21 1 -62 38 -80 73 -8
15 -23 27 -33 27 -27 0 -58 -36 -58 -67 0 -16 -7 -36 -14 -46 -13 -17 -15 -16
-35 9 -25 32 -24 25 -6 94 15 55 15 55 -18 120 -29 60 -34 65 -62 63 -16 -1
-31 -7 -33 -13 -2 -6 -16 -2 -32 10 -15 11 -35 20 -42 20 -25 0 -41 -44 -34
-94 5 -29 3 -46 -3 -46 -17 0 -29 32 -36 101 -6 54 -13 74 -41 109 -22 27 -34
54 -34 74 -1 17 -1 117 -1 223 0 105 -4 204 -8 220 -8 31 -62 66 -69 45 -2 -7
-10 -12 -17 -12 -24 0 -35 -98 -34 -305 0 -110 0 -217 -1 -237 0 -31 -4 -39
-24 -44 -18 -4 -26 -16 -33 -47 -6 -31 -13 -41 -25 -39 -26 4 -79 -48 -76 -74
3 -24 -18 -54 -38 -54 -8 0 -14 -6 -14 -13 0 -24 -65 -74 -110 -85 -44 -11
-46 -10 -90 26 -85 70 -78 67 -101 46 -17 -15 -20 -28 -17 -71 2 -29 0 -53 -4
-53 -5 0 -8 -6 -8 -14 0 -13 -35 -30 -54 -26 -6 1 -21 -5 -34 -12 -23 -12 -26
-10 -50 22 -15 19 -45 54 -69 77 -35 35 -48 42 -77 40 -40 -3 -93 -45 -116
-92 -8 -16 -22 -42 -32 -57 -10 -14 -18 -33 -18 -42 0 -13 -5 -14 -27 -5 -19
7 -28 6 -34 -2 -4 -6 -11 -9 -17 -5 -6 3 -13 3 -16 -2 -2 -4 -56 -7 -118 -6
-62 1 -121 0 -130 -3 -16 -4 -18 -20 -18 -153 0 -101 -4 -151 -11 -156 -7 -4
-28 -8 -48 -9 -20 -2 -40 -4 -46 -5 -33 -8 -51 2 -60 33 -8 27 -15 32 -41 33
-17 1 -35 4 -41 7 -5 3 -24 -3 -41 -14 -18 -10 -39 -19 -47 -19 -14 0 -16 -7
-20 -68 -7 -106 -11 -114 -95 -183 -44 -35 -79 -70 -80 -77 0 -9 -7 -11 -20
-7 -11 4 -34 -1 -52 -9 -17 -9 -36 -16 -42 -16 -6 0 -24 -20 -41 -45 -16 -25
-38 -47 -47 -51 -10 -3 -18 -10 -18 -15 0 -5 -9 -9 -20 -9 -12 0 -20 -7 -20
-16 0 -9 -6 -14 -13 -11 -7 3 -20 -11 -31 -34 -20 -41 -41 -48 -88 -30 -13 5
-50 16 -83 26 -33 9 -73 21 -90 27 -16 5 -37 11 -45 12 -8 1 -29 10 -47 19
-18 9 -42 17 -53 17 -12 0 -35 9 -51 20 -16 12 -34 20 -41 18 -7 -1 -27 6 -45
15 -18 9 -39 17 -49 17 -9 0 -33 9 -53 19 -20 11 -63 32 -96 46 -33 14 -82 37
-110 51 -52 26 -61 30 -110 57 -16 9 -55 29 -85 43 -30 15 -76 42 -101 61 -26
18 -54 33 -63 33 -9 0 -16 5 -16 10 0 6 -4 10 -10 10 -5 0 -40 21 -77 48 -38
26 -79 52 -93 58 -14 7 -63 43 -110 81 -47 38 -92 72 -100 75 -18 7 -115 87
-245 202 -49 44 -101 90 -115 102 -60 53 -175 161 -189 178 -9 10 -31 34 -48
52 -34 34 -36 41 -37 134 l-1 55 -61 1 c-34 1 -66 4 -72 8 -6 3 -14 1 -17 -5
-4 -5 -13 -8 -21 -5 -11 4 -14 -9 -15 -62 -1 -37 -1 -72 0 -77 1 -16 -193
-205 -210 -205 -5 0 -9 -7 -9 -15 0 -8 -3 -15 -8 -15 -4 0 -21 -12 -37 -27
-16 -16 -33 -27 -38 -25 -4 1 -10 -5 -13 -13 -4 -8 -15 -15 -26 -15 -14 0 -18
-5 -14 -15 4 -10 -1 -15 -14 -15 -12 0 -20 -7 -20 -16 0 -10 -6 -14 -15 -10
-9 3 -19 -3 -25 -15 -6 -11 -15 -17 -21 -14 -5 4 -9 -1 -9 -9 0 -9 -5 -16 -11
-16 -12 0 -191 -139 -197 -152 -2 -5 -12 -8 -23 -8 -10 0 -19 -4 -19 -10 0 -5
-9 -10 -19 -10 -10 0 -22 -7 -25 -16 -3 -8 -10 -13 -15 -10 -5 3 -11 -1 -15
-9 -3 -8 -12 -15 -20 -15 -7 0 -16 -7 -20 -15 -3 -8 -12 -15 -21 -15 -8 0 -15
-4 -15 -10 0 -5 -9 -10 -20 -10 -11 0 -20 -4 -20 -10 0 -5 -9 -10 -20 -10 -11
0 -20 -4 -20 -10 0 -5 -4 -10 -10 -10 -5 0 -33 -17 -62 -37 -29 -21 -60 -36
-70 -35 -11 2 -18 -3 -18 -13 0 -9 -4 -14 -9 -11 -5 3 -25 -5 -45 -19 -20 -14
-41 -25 -46 -25 -6 0 -10 -4 -10 -10 0 -5 -9 -10 -19 -10 -11 0 -23 -4 -26
-10 -3 -6 -13 -10 -22 -10 -8 0 -29 -10 -46 -22 -18 -13 -40 -21 -49 -20 -10
2 -18 -2 -18 -7 0 -6 -6 -11 -13 -11 -19 0 -67 -24 -67 -33 0 -4 -11 -5 -25
-1 -15 4 -25 2 -25 -5 0 -6 -7 -11 -15 -11 -15 0 -25 -4 -72 -28 -13 -7 -27
-12 -33 -12 -6 0 -22 -7 -36 -16 -13 -9 -41 -18 -61 -19 -20 -1 -41 -9 -47
-17 -6 -8 -29 -18 -51 -22 -22 -4 -46 -12 -52 -18 -7 -6 -19 -8 -28 -5 -8 4
-17 2 -19 -2 -6 -9 -65 -25 -80 -22 -4 1 -14 -3 -22 -10 -7 -6 -18 -8 -23 -5
-5 4 -13 1 -16 -4 -4 -6 -17 -10 -28 -9 -12 0 -24 0 -27 -1 -3 -1 -14 -3 -25
-5 -11 -2 -21 -9 -23 -14 -2 -6 -14 -8 -27 -5 -14 3 -38 -1 -55 -10 -17 -8
-38 -12 -46 -9 -8 3 -20 1 -27 -4 -6 -6 -29 -10 -50 -10 -21 -1 -44 -6 -51
-12 -7 -6 -21 -9 -30 -5 -9 3 -24 3 -34 -1 -9 -4 -35 -9 -56 -11 -22 -2 -45
-9 -52 -15 -8 -7 -14 -7 -19 1 -7 11 -45 14 -45 3 0 -10 -87 -9 -97 0 -3 4
-12 2 -20 -4 -9 -9 -17 -8 -27 0 -10 9 -20 9 -33 3 -12 -7 -25 -7 -36 0 -12 6
-22 6 -30 -1 -7 -5 -18 -6 -25 -2 -8 4 -55 7 -105 6 -54 -2 -98 2 -105 8 -10
8 -16 7 -22 -2 -5 -9 -15 -11 -31 -5 -22 7 -91 9 -114 3 -5 -1 -18 1 -28 6
-10 4 -23 2 -32 -5 -10 -8 -19 -9 -28 -3 -6 6 -64 9 -127 9 -63 -1 -123 2
-133 7 -12 5 -24 4 -33 -4 -9 -7 -18 -8 -27 -2 -6 5 -37 9 -67 8 -30 -2 -61 2
-68 8 -8 6 -16 6 -25 -1 -10 -9 -19 -8 -35 3 -11 9 -46 18 -78 21 -31 3 -73
11 -93 19 -20 7 -65 19 -101 26 -36 6 -71 16 -77 22 -7 5 -20 7 -28 3 -8 -3
-30 4 -49 15 -18 10 -41 17 -49 13 -9 -3 -32 4 -52 16 -19 12 -39 19 -44 15
-5 -3 -25 4 -43 15 -18 11 -45 20 -59 20 -14 0 -34 7 -45 15 -10 8 -27 15 -37
15 -18 0 -51 16 -79 39 -9 7 -23 11 -30 8 -7 -3 -31 5 -53 18 -22 12 -53 25
-70 29 -16 4 -37 14 -45 22 -9 7 -34 20 -56 27 -21 8 -61 29 -89 46 -27 17
-57 31 -66 31 -10 0 -20 4 -24 9 -7 12 -94 61 -107 61 -6 0 -37 20 -70 45 -33
25 -67 45 -75 45 -9 0 -45 22 -82 48 -36 27 -83 59 -104 72 -21 12 -68 47
-105 77 -37 30 -80 62 -97 70 -68 35 -525 453 -585 535 -22 30 -27 45 -23 78
3 23 2 51 -1 63 -5 21 -11 23 -73 21 -121 -2 -110 6 -115 -81 l-5 -76 -49 -46
c-28 -25 -87 -80 -132 -121 -46 -41 -108 -99 -139 -127 -31 -29 -61 -53 -66
-53 -5 0 -7 -36 -3 -88 4 -48 6 -103 6 -122 -1 -19 -3 -261 -6 -537 -6 -483
-5 -503 13 -504 10 -1 23 0 28 1 6 1 30 2 55 0 25 -1 82 -3 128 -4 59 -2 86
-6 93 -17 5 -8 8 -87 7 -182 -3 -146 -5 -170 -20 -181 -12 -9 -48 -12 -113
-10 -55 2 -97 -1 -101 -7 -4 -6 -11 -6 -19 1 -9 7 -27 9 -45 5 l-30 -7 0
-1654 0 -1654 17565 0 17565 0 0 3386 0 3385 -47 -3 c-46 -3 -48 -4 -53 -38
-6 -40 0 -38 -153 -40 -106 -1 -118 3 -137 50 -7 17 -18 30 -26 30 -11 0 -27
30 -29 55 0 5 -22 20 -49 33 -44 21 -52 22 -90 10 -38 -12 -42 -11 -66 10 -14
13 -32 30 -41 38 -10 9 -19 39 -23 72 -10 85 -9 95 10 109 10 8 13 13 6 13
-10 0 -10 5 -1 22 10 18 8 24 -6 34 -14 10 -15 17 -7 27 6 7 10 24 7 37 -2 12
0 30 5 39 8 13 9 11 7 -8 -1 -14 4 -26 13 -28 12 -4 12 -3 1 5 -9 7 -10 12 -2
16 6 4 11 20 11 37 0 20 5 29 16 29 9 0 18 9 21 20 3 11 9 17 14 14 5 -3 9 8
9 23 0 19 -10 36 -30 53 -21 18 -26 27 -19 37 6 7 8 25 4 41 -4 20 -1 34 9 45
19 18 21 37 5 37 -7 0 -9 10 -7 24 3 16 0 27 -9 30 -10 4 -11 10 -3 25 5 11
10 33 10 48 0 16 4 33 10 39 6 6 3 13 -9 21 -16 10 -19 3 -34 -93 -10 -57 -16
-107 -15 -111 1 -4 -2 -41 -6 -81 -7 -65 -10 -73 -32 -78 -35 -9 -54 2 -54 32
0 17 6 28 20 31 24 6 27 33 4 33 -14 0 -15 13 -11 101 5 90 3 100 -11 97 -11
-2 -18 -15 -20 -36 -4 -43 -22 -41 -22 3 0 19 -4 35 -8 35 -10 0 -32 -144 -32
-206 0 -45 -12 -60 -50 -66 -20 -2 -26 -9 -28 -36 -4 -36 14 -66 34 -58 27 10
26 -235 -2 -521 -6 -54 -18 -68 -29 -34 -9 30 -36 37 -178 42 -19 0 -47 -23
-47 -40 0 -29 -25 -61 -47 -61 -13 0 -26 -6 -29 -14 -4 -10 -16 -12 -44 -9
-28 4 -48 0 -72 -15 -18 -11 -39 -17 -45 -15 -7 3 -25 -5 -39 -16 -15 -12 -32
-21 -40 -21 -20 0 -94 -72 -94 -92 0 -10 -4 -18 -10 -18 -5 0 -10 -9 -10 -20
0 -10 -5 -30 -11 -43 -7 -16 -8 -31 -2 -43 6 -11 7 -30 4 -42 l-6 -24 -19 21
c-46 51 -76 5 -82 -124 -2 -38 -4 -72 -5 -75 -1 -3 -2 -16 -3 -29 -2 -42 -24
-35 -36 11 -16 62 -28 88 -45 94 -22 9 -65 -4 -62 -19 4 -21 -75 -22 -90 -1
-13 18 -18 86 -7 97 13 12 14 92 3 119 -9 22 -8 33 3 50 15 24 17 144 3 187
-5 18 -12 21 -32 16 -21 -5 -26 -1 -36 25 -6 16 -18 30 -27 30 -24 0 -40 21
-40 51 0 44 -44 72 -104 66 -56 -5 -76 -24 -76 -73 0 -27 -5 -34 -30 -43 -23
-7 -30 -16 -30 -35 0 -15 -3 -26 -7 -26 -21 -1 -36 -22 -39 -56 -14 -166 -16
-175 -32 -181 -10 -4 -20 1 -26 12 -6 10 -22 27 -35 39 -14 12 -33 29 -43 39
-15 14 -28 17 -59 12 -22 -4 -39 -12 -39 -20 0 -16 -60 -26 -77 -13 -6 5 -10
27 -9 49 2 26 -1 39 -9 39 -7 0 -18 7 -25 15 -16 19 -116 21 -134 2 -7 -7 -15
-32 -19 -56 -3 -24 -11 -48 -19 -52 -14 -9 -24 -10 -201 -11 -65 0 -119 -4
-121 -7 -2 -3 -7 -73 -11 -156 -3 -82 -8 -163 -11 -180 -2 -16 -5 -49 -6 -72
-2 -38 -4 -41 -18 -28 -9 8 -22 15 -28 15 -17 0 -52 -32 -52 -48 0 -9 -6 -12
-17 -8 -9 4 -20 1 -24 -5 -12 -19 -42 -2 -36 21 8 30 -23 58 -65 62 -44 3 -49
-1 -57 -48 -9 -57 -32 -65 -80 -26 -48 38 -77 36 -115 -8 -23 -28 -45 -128
-31 -149 8 -14 -57 -25 -105 -18 -27 3 -43 1 -51 -9 -6 -8 -15 -11 -20 -8 -5
3 -14 2 -21 -2 -6 -4 -53 -8 -105 -9 -51 -1 -95 -4 -98 -7 -3 -3 -8 -34 -11
-69 -6 -82 -21 -172 -23 -138 0 15 -11 38 -22 53 -17 22 -27 26 -46 21 -36 -9
-63 19 -64 64 0 20 -5 52 -12 71 -10 29 -18 36 -52 43 -71 14 -106 14 -114 -2
-12 -20 -31 -4 -31 25 0 15 4 23 10 19 22 -13 4 21 -19 37 -22 15 -83 18 -107
6 -8 -4 -27 -3 -39 2 -3 1 -22 2 -42 3 -32 0 -39 -3 -41 -21 -2 -12 -8 -22
-14 -22 -6 0 -7 -8 -3 -17 5 -15 4 -16 -6 -5 -22 21 -56 13 -88 -19 -27 -27
-31 -38 -31 -85 0 -46 -3 -54 -19 -54 -27 0 -95 30 -104 46 -18 31 -57 2 -57
-41 0 -9 -6 -22 -12 -28 -16 -15 -101 -14 -106 1 -2 6 -10 8 -19 5 -13 -5 -15
0 -9 39 6 43 5 47 -23 67 -21 16 -32 18 -37 9 -5 -7 -10 -3 -16 13 -7 17 -5
26 6 34 12 9 14 27 9 88 -4 57 -3 77 6 77 13 0 9 90 -6 148 -3 14 1 30 10 40
12 14 14 27 6 67 -11 57 -9 114 4 122 5 3 5 39 1 80 -5 57 -4 74 5 69 9 -6 10
14 6 79 -4 57 -2 91 5 100 7 8 10 46 9 92 -2 43 0 88 3 100 5 16 2 24 -11 28
-25 7 -41 47 -41 99 0 24 -6 48 -12 53 -7 5 -39 7 -71 5 -52 -4 -58 -6 -55
-25 2 -16 -2 -22 -17 -22 -15 0 -19 -6 -17 -24 2 -15 0 -21 -7 -17 -6 4 -11
19 -11 34 0 32 -27 75 -41 66 -5 -3 -17 0 -25 7 -17 14 -29 6 -48 -32 -6 -13
-22 -26 -36 -29 -18 -5 -24 -12 -23 -28 2 -12 -2 -22 -8 -22 -6 0 -8 -7 -5
-15 4 -11 -3 -19 -19 -25 -22 -8 -25 -16 -25 -57 -1 -49 -4 -113 -14 -259 -9
-133 -24 -487 -25 -609 -2 -79 -10 -93 -44 -70 -20 12 -27 28 -32 68 -12 98
13 89 -243 86 -125 -1 -233 -4 -239 -7 -17 -5 -43 -60 -43 -87 0 -21 -3 -22
-38 -14 -60 13 -116 5 -118 -17 -3 -64 -4 -65 -23 -59 -27 8 -45 -27 -47 -91
-1 -62 -9 -76 -38 -68 -21 5 -24 1 -30 -31 -7 -36 -9 -37 -41 -31 -18 4 -52 2
-76 -3 -47 -11 -68 -2 -67 27 1 9 -4 36 -11 58 -8 32 -18 45 -43 55 -35 14
-117 19 -124 7 -3 -5 -14 -4 -24 2 -13 7 -21 7 -25 0 -3 -6 -17 -7 -31 -4 -30
8 -50 -8 -70 -55 -9 -20 -20 -44 -25 -53 -5 -10 -9 -25 -9 -33 0 -8 -4 -15
-10 -15 -5 0 -10 -11 -10 -25 0 -14 -4 -25 -10 -25 -5 0 -10 -9 -10 -20 0 -11
-4 -20 -10 -20 -5 0 -10 -11 -10 -25 0 -24 -3 -25 -57 -26 -102 -2 -128 2
-153 22 -50 39 -68 50 -86 54 -11 2 -35 10 -55 19 -21 9 -69 16 -115 16 -128
2 -135 3 -165 33 -24 24 -31 26 -48 15 -15 -9 -25 -9 -45 0 -17 8 -26 8 -26 1
0 -6 -4 -7 -10 -4 -13 8 -13 52 1 61 14 8 3 91 -16 120 -9 15 -21 20 -37 17
-13 -2 -29 0 -35 5 -15 9 -35 102 -22 102 4 0 9 -10 12 -22 2 -13 3 64 2 170
0 105 3 192 7 192 12 0 6 160 -7 161 -5 1 -90 2 -187 3 -100 1 -182 6 -187 11
-17 19 -21 79 -7 106 17 33 -2 63 -42 65 -18 0 -31 9 -39 25 -15 29 -17 99 -3
99 14 0 12 84 -2 98 -13 13 -53 15 -109 6 l-37 -6 -8 -122 -9 -121 -40 -3
c-48 -4 -65 -23 -65 -74 0 -21 -4 -38 -10 -38 -5 0 -10 3 -11 8 -4 36 -9 63
-18 101 -10 37 -9 46 5 62 16 18 16 28 -2 132 -4 22 -2 37 4 37 6 0 9 39 9 98
0 53 0 122 0 152 2 113 3 109 -34 119 -19 6 -40 8 -47 5 -7 -3 -92 -6 -190 -7
-145 -2 -179 -5 -186 -17 -4 -8 -11 -119 -14 -247 -4 -127 -9 -260 -11 -295
-2 -35 -7 -171 -11 -303 -4 -132 -8 -251 -9 -265 -1 -14 -3 -37 -4 -52 -1 -27
-3 -28 -50 -28 -56 0 -62 5 -66 61 -1 22 -5 43 -9 46 -11 11 -6 22 7 17 11 -4
12 4 7 38 -4 24 -10 50 -14 58 -10 24 -56 40 -117 40 -32 0 -61 4 -64 10 -3 5
-9 33 -12 61 -5 42 -3 50 7 44 11 -7 12 3 6 51 -19 155 -19 156 -5 165 11 6
11 16 1 54 -7 25 -12 68 -12 95 0 39 -3 50 -16 50 -12 0 -15 -7 -12 -25 3 -14
2 -27 -2 -30 -4 -2 -7 -48 -6 -100 1 -67 -3 -100 -11 -107 -7 -6 -13 -28 -13
-49 0 -56 -16 -48 -24 11 -4 33 -2 56 6 69 10 17 9 24 -8 43 -12 13 -24 31
-27 41 -6 16 -31 22 -66 17 -7 -1 -25 10 -40 23 -28 27 -38 30 -88 28 -28 -1
-32 -5 -35 -33 l-3 -33 -61 2 -62 3 -1 -87 c-2 -127 -5 -133 -56 -133 -42 0
-43 -1 -49 -39 -3 -22 -10 -41 -16 -43 -6 -2 -11 -29 -13 -60 -1 -32 -5 -58
-8 -58 -32 0 -80 92 -57 106 7 5 9 38 4 101 -4 58 -3 92 3 89 5 -4 7 27 4 76
-6 89 -33 168 -57 168 -23 0 -56 50 -56 84 0 17 -2 57 -6 89 -4 39 -3 57 5 57
17 0 13 57 -5 85 -9 14 -17 45 -19 70 -3 54 -20 78 -48 69 -12 -4 -55 -7 -96
-6 -108 0 -114 -4 -116 -69 -1 -41 -6 -55 -18 -57 -9 -2 -19 -11 -22 -21 -4
-15 -15 -211 -15 -283 0 -15 -10 -18 -61 -18 -35 0 -75 7 -95 16 -34 16 -35
16 -54 -9 -12 -15 -27 -24 -34 -21 -10 4 -16 -7 -20 -33 -17 -106 -24 -123
-56 -123 -16 0 -32 5 -35 10 -3 6 -1 10 4 10 15 0 14 86 -1 113 -6 12 -21 30
-34 40 -13 9 -26 26 -29 37 -4 11 -13 20 -21 20 -8 0 -14 4 -14 9 0 5 -9 11
-21 14 -15 4 -35 -9 -77 -49 -31 -30 -60 -54 -65 -54 -4 0 -11 10 -16 23 -16
40 -60 64 -116 60 -145 -9 -160 -13 -150 -43 5 -14 2 -17 -13 -13 -20 5 -52
-20 -52 -40 0 -7 -13 -19 -29 -28 -21 -12 -30 -27 -35 -55 -9 -50 -23 -253
-26 -368 -2 -49 -5 -98 -8 -108 -5 -22 -20 -14 -33 19 -8 23 -12 24 -70 18
-69 -6 -79 -10 -79 -30 0 -21 -42 -29 -138 -28 -61 0 -87 5 -101 17 -22 20
-31 20 -31 1 0 -8 -9 -20 -20 -27 -11 -7 -20 -23 -20 -35 0 -27 -38 -42 -54
-21 -6 8 -20 19 -30 25 -42 23 -110 297 -80 319 9 7 9 30 3 88 -6 55 -6 82 1
86 13 8 2 157 -11 166 -5 3 -13 23 -19 44 -6 22 -15 40 -20 40 -5 0 -19 11
-32 24 -28 30 -70 47 -88 36 -8 -5 -21 -5 -31 0 -9 5 -19 6 -23 3 -3 -4 -38
-7 -76 -7 l-70 -1 -15 52 c-8 28 -15 67 -15 87 0 20 -4 36 -10 36 -10 0 -12
-13 -15 -122 -1 -43 -8 -76 -19 -92 -9 -14 -16 -31 -16 -38 0 -7 -17 -32 -38
-54 -30 -34 -43 -42 -70 -40 -19 0 -38 -4 -44 -11 -6 -7 -12 -112 -14 -250 -2
-131 -6 -317 -9 -413 -2 -96 -5 -231 -5 -300 0 -141 -7 -165 -39 -136 -15 13
-24 16 -33 8 -8 -6 -32 -7 -61 -2 -53 8 -50 9 -83 -61 -21 -45 -23 -47 -55
-40 -29 6 -35 12 -40 44 -3 21 -2 40 3 43 4 3 8 0 8 -7 0 -7 3 -10 6 -7 3 4 0
41 -6 84 -9 57 -9 79 -1 82 13 4 15 95 2 139 -6 22 -6 35 1 39 7 4 9 37 5 90
-3 48 -1 87 5 90 5 3 6 15 2 26 -3 11 -7 26 -8 32 -1 7 -12 25 -24 40 -24 32
-28 46 -11 46 8 0 10 19 5 66 -5 44 -3 71 5 80 18 21 5 39 -45 63 -39 18 -46
26 -46 50 0 63 -44 121 -92 121 -16 0 -41 -39 -38 -61 1 -8 2 -40 1 -71 -1
-57 -1 -58 -30 -58 -43 0 -61 -10 -61 -32 0 -15 -5 -18 -20 -13 -15 5 -22 1
-29 -17 -4 -13 -7 -28 -4 -33 2 -7 -25 -11 -78 -10 -61 0 -83 -4 -89 -15 -7
-12 -16 -13 -47 -5 -21 6 -58 7 -83 4 -30 -4 -50 -2 -60 6 -8 6 -23 15 -32 18
-20 7 -23 22 -8 32 7 4 7 13 0 26 -8 15 -21 19 -60 19 -81 0 -78 -15 -73 352
7 451 5 629 -7 643 -6 7 -30 11 -55 10 -50 -2 -48 -5 -60 87 -3 25 -11 51 -18
56 -14 11 -402 10 -414 -1 -4 -5 -9 -47 -10 -95 -2 -48 -5 -92 -7 -98 -3 -7
-28 -12 -62 -13 -32 0 -60 -5 -64 -11 -3 -5 -7 -136 -8 -291 -1 -154 -4 -285
-7 -289 -10 -16 -63 -38 -72 -30 -4 4 -18 11 -29 14 -19 6 -22 2 -28 -39 -5
-29 -12 -45 -22 -45 -12 0 -14 -40 -15 -252 -1 -139 -2 -262 -3 -273 -1 -11
-3 -36 -4 -55 l-2 -35 -193 -3 -194 -3 -32 30 c-18 17 -38 31 -45 31 -17 0
-35 -35 -29 -58 3 -14 -3 -25 -20 -36 l-24 -17 -1 -241 c-1 -260 -5 -300 -28
-291 -8 3 -14 0 -14 -5 0 -7 -13 -6 -37 2 l-38 13 3 79 c2 44 -1 100 -6 127
-6 27 -6 50 -1 53 18 11 8 52 -23 100 -31 46 -33 54 -30 125 2 75 -26 253 -49
312 -6 15 -19 27 -28 27 -9 0 -28 13 -42 29 -25 28 -28 29 -110 26 -77 -2 -84
-5 -87 -24 -3 -21 -22 -30 -22 -10 0 6 -9 24 -21 40 -15 22 -28 29 -53 29 -25
0 -42 9 -67 34 -26 27 -36 32 -47 24 -23 -19 -32 10 -31 97 4 248 -4 293 -43
269 -7 -5 -21 -7 -30 -6 -12 2 -18 -3 -19 -15 -12 -265 -18 -342 -30 -365 -14
-28 -33 -36 -43 -19 -12 18 -46 -1 -46 -26 0 -13 -8 -36 -17 -50 -10 -15 -19
-47 -21 -72 -1 -24 -7 -50 -13 -57 -7 -8 -10 -80 -10 -195 1 -101 -2 -198 -5
-216 -6 -30 -8 -32 -28 -21 -11 6 -23 11 -26 10 -3 -1 -23 3 -45 9 -37 10 -41
9 -66 -19 -18 -20 -28 -46 -33 -83 -7 -50 -8 -53 -22 -34 -38 53 -33 51 -175
50 l-134 -1 -32 -31 c-21 -20 -34 -44 -39 -70 -5 -34 -9 -39 -32 -38 -17 0
-30 -8 -37 -21 -16 -33 -35 -4 -35 54 0 71 -17 81 -66 37 -21 -19 -43 -34 -49
-32 -5 2 -11 30 -12 63 -5 169 -14 314 -23 359 -5 28 -6 66 -2 85 5 19 4 52
-1 73 -7 27 -6 50 3 77 10 29 10 52 1 102 -13 78 -13 81 -2 74 4 -3 8 65 8
152 1 86 3 284 5 440 2 155 1 286 -2 290 -3 5 -21 16 -41 25 l-36 17 -8 117
c-8 127 -12 207 -19 373 -2 58 -7 157 -10 220 -4 63 -8 153 -10 200 -2 47 -8
123 -14 169 -5 47 -8 91 -5 98 6 15 -12 39 -37 53 -13 7 -22 4 -33 -8z m17070
-1142 c-1 -16 -5 -30 -10 -30 -4 0 -6 14 -5 30 1 17 6 30 10 30 4 0 6 -13 5
-30z m73 -304 c0 -24 -23 -56 -41 -56 -9 0 -12 11 -7 28 1 4 8 6 16 4 9 -2 11
4 6 22 -5 20 -2 26 10 26 10 0 16 -9 16 -24z m-35 -76 c3 -5 1 -10 -4 -10 -6
0 -11 5 -11 10 0 6 2 10 4 10 3 0 8 -4 11 -10z m15 -54 c0 -8 -4 -18 -10 -21
-5 -3 -10 3 -10 14 0 12 5 21 10 21 6 0 10 -6 10 -14z m-10 -46 c0 -5 -4 -10
-10 -10 -5 0 -10 5 -10 10 0 6 5 10 10 10 6 0 10 -4 10 -10z m-12140 -144 c0
-8 -4 -18 -10 -21 -5 -3 -10 3 -10 14 0 12 5 21 10 21 6 0 10 -6 10 -14z
m3124 -488 c-2 -71 -4 -78 -13 -78 -10 0 -22 77 -14 96 3 8 9 11 14 8 5 -3 9
0 9 5 0 6 1 11 3 11 2 0 2 -19 1 -42z m-10514 -1254 c0 -24 -17 -15 -22 11 -4
20 -3 23 8 14 8 -6 14 -18 14 -25z m-14135 -197 c0 -106 -13 -501 -20 -609 -2
-35 -7 -155 -10 -268 -4 -141 -9 -206 -17 -211 -14 -9 -88 -6 -104 3 -11 7
-10 188 1 423 4 72 8 182 10 245 2 63 7 169 10 235 3 66 8 176 10 244 3 68 8
128 11 133 4 6 30 -13 58 -41 l51 -51 0 -103z m-305 69 c0 -56 -4 -171 -10
-256 -10 -158 -29 -637 -31 -788 -2 -101 -20 -134 -63 -114 -14 6 -32 9 -40 6
-22 -9 -27 59 -16 257 6 101 13 254 15 339 3 85 10 244 16 353 6 109 8 201 5
204 -6 7 49 80 79 105 35 29 45 6 45 -106z m14430 23 c0 -6 -4 -7 -10 -4 -5 3
-10 11 -10 16 0 6 5 7 10 4 6 -3 10 -11 10 -16z m-7553 -69 c26 -28 53 -63 60
-78 9 -19 12 -106 12 -297 -1 -327 -2 -302 16 -309 13 -5 15 15 12 149 -1 85
0 155 3 155 6 0 3 126 -4 153 -2 9 0 17 6 17 5 0 7 15 4 34 -10 61 13 61 78
-1 79 -77 88 -92 86 -155 0 -29 -3 -197 -5 -373 -3 -176 -5 -352 -6 -392 0
-39 2 -77 6 -82 3 -6 1 -11 -6 -11 -7 0 -9 -10 -7 -25 4 -20 1 -25 -16 -25
-12 0 -30 0 -41 0 -64 -1 -90 6 -100 26 -6 13 -10 110 -9 260 1 131 -1 243 -4
249 -10 15 -21 -67 -12 -89 4 -11 1 -46 -6 -79 -7 -35 -9 -71 -4 -87 5 -16 6
-31 3 -33 -2 -3 -6 -56 -9 -118 -3 -75 -8 -115 -16 -120 -19 -12 -109 -3 -118
11 -8 12 -6 152 4 505 3 88 6 296 7 463 1 166 5 302 9 302 5 0 30 -23 57 -50z
m-254 16 c5 -13 -1 -794 -7 -961 -2 -38 -4 -115 -5 -170 -1 -90 -3 -101 -22
-113 -15 -10 -24 -11 -32 -3 -6 6 -19 11 -29 11 -11 0 -21 11 -25 28 -8 30 -8
225 2 453 4 102 2 155 -6 175 l-12 29 -8 -35 c-4 -19 -9 -111 -9 -205 -1 -152
-4 -289 -8 -412 l-2 -41 -50 2 c-27 1 -53 5 -56 9 -4 4 -13 2 -21 -5 -11 -9
-18 -8 -30 5 -16 16 -17 49 -9 287 2 41 0 84 -5 96 -4 11 -3 27 1 35 4 7 10
142 14 299 l6 285 32 27 c18 15 36 28 41 28 4 0 7 7 7 16 0 9 5 12 11 8 7 -4
20 4 30 17 18 22 20 23 33 7 10 -14 13 -60 11 -200 -2 -174 3 -218 26 -218 6
0 9 33 8 88 -1 48 -1 157 2 242 l4 155 39 38 c42 39 61 46 69 23z m7817 -23
c0 -7 -4 -13 -10 -13 -5 0 -10 12 -10 28 0 21 2 24 10 12 5 -8 10 -21 10 -27z
m-14613 10 c4 -9 6 -35 6 -57 0 -70 -13 -433 -22 -621 -5 -99 -10 -214 -12
-255 -1 -41 -3 -88 -4 -105 -1 -16 -3 -42 -3 -56 -2 -24 -5 -25 -47 -24 -25 1
-48 5 -52 8 -3 4 -14 2 -23 -3 -44 -24 -47 23 -25 405 4 74 16 424 19 540 1
45 5 53 46 92 25 24 50 43 56 43 6 0 16 11 22 25 13 29 30 32 39 8z m613 -50
l72 -68 -2 -105 c-2 -127 -7 -267 -14 -415 -3 -60 -6 -171 -6 -245 -1 -74 -4
-157 -7 -185 l-5 -50 -70 0 c-102 1 -101 -1 -94 220 4 99 9 259 11 355 3 96 8
182 10 190 4 12 15 279 15 353 0 28 15 20 90 -50z m177 -160 c32 -26 63 -52
69 -58 28 -26 31 -55 23 -225 -3 -96 -10 -276 -13 -399 -4 -124 -9 -229 -12
-233 -3 -5 -10 -5 -17 -1 -6 3 -39 6 -73 6 -48 -1 -64 3 -69 15 -7 18 2 439
14 687 5 94 8 189 8 213 -1 23 1 42 5 42 3 0 32 -21 65 -47z m13823 21 c0 -8
-4 -14 -10 -14 -5 0 -10 9 -10 21 0 11 5 17 10 14 6 -3 10 -13 10 -21z m-8168
-138 c-3 -6 -7 -145 -8 -311 -1 -165 -3 -300 -4 -300 -7 0 -5 -143 2 -157 5
-10 4 -19 -2 -23 -5 -3 -9 -18 -8 -33 5 -77 5 -77 -73 -76 -57 0 -74 4 -85 19
-11 14 -12 69 -8 274 7 305 7 318 6 356 -1 17 2 66 6 110 l7 79 70 59 69 58
17 -23 c10 -12 15 -27 11 -32z m8162 -13 c3 -24 2 -43 -3 -43 -5 0 -11 22 -13
50 -4 58 7 53 16 -7z m-7147 -41 l73 -68 -6 -193 c-4 -150 -2 -196 8 -209 10
-12 10 -14 1 -8 -22 13 -22 -162 0 -176 9 -6 9 -8 -1 -8 -8 0 -12 -12 -12 -32
2 -54 -7 -159 -14 -165 -8 -8 -85 -8 -92 0 -4 3 -17 2 -30 -3 -46 -18 -51 17
-39 260 4 85 9 236 10 335 4 327 4 335 18 335 6 0 45 -31 84 -68z m-6473 18
c24 -22 47 -40 51 -40 4 0 19 -12 32 -26 23 -25 24 -29 19 -148 -4 -66 -8
-213 -11 -325 -6 -213 -11 -239 -46 -220 -13 6 -25 6 -38 0 -10 -6 -21 -7 -25
-4 -5 5 -20 8 -60 12 -5 1 -6 123 -2 294 8 353 16 497 28 497 4 0 28 -18 52
-40z m5225 -79 c11 -7 14 -50 12 -232 -5 -517 -6 -529 -28 -544 -11 -8 -23
-12 -26 -9 -3 3 -27 7 -53 9 -30 2 -52 9 -60 19 -12 17 -11 262 2 543 6 122 8
133 27 139 11 3 30 15 41 26 12 11 31 24 44 29 13 5 20 13 17 19 -8 12 5 13
24 1z m8384 -21 c3 -11 1 -18 -4 -14 -5 3 -9 12 -9 20 0 20 7 17 13 -6z
m-13403 -43 c14 -13 39 -32 57 -41 17 -8 35 -25 38 -37 4 -11 4 -133 0 -272
-6 -217 -9 -253 -23 -264 -10 -7 -26 -11 -37 -8 -11 3 -34 5 -51 5 -57 0 -67
17 -65 111 8 387 12 516 17 531 6 21 26 13 64 -25z m6429 3 c23 -22 46 -40 50
-40 5 0 19 -11 33 -25 l25 -25 -3 -292 c-2 -161 -4 -295 -5 -298 -1 -3 0 -13
1 -23 3 -31 -18 -45 -63 -42 -60 2 -95 14 -101 33 -3 10 -6 42 -7 72 -2 58 11
567 16 610 1 14 3 35 4 48 0 12 3 22 4 22 2 0 23 -18 46 -40z m-1603 -241 c-2
-71 1 -132 6 -135 5 -3 5 -11 0 -17 -5 -7 -8 -50 -8 -97 1 -47 -2 -88 -7 -91
-5 -4 -5 -15 2 -27 7 -14 8 -23 1 -27 -6 -3 -7 -17 -4 -31 11 -43 -9 -53 -89
-48 -39 3 -74 8 -77 11 -6 5 -2 458 4 488 3 11 5 28 5 37 1 22 40 58 63 58 10
0 18 3 18 8 0 4 12 15 28 24 26 17 28 17 44 -3 14 -17 16 -40 14 -150z m-4643
120 c12 -7 24 -15 27 -18 8 -10 43 -31 61 -37 31 -11 40 -53 38 -183 -1 -69
-4 -158 -7 -197 l-4 -70 -75 1 c-52 1 -78 6 -84 16 -7 10 -7 475 0 497 2 6 24
1 44 -9z m6510 -68 c20 -13 42 -31 47 -41 6 -12 8 -92 5 -212 -6 -216 -6 -215
-23 -244 -6 -12 -8 -24 -5 -28 3 -3 -1 -6 -10 -6 -10 0 -17 -8 -17 -18 0 -19
-20 -20 -87 -6 -29 6 -57 58 -44 82 5 9 9 93 9 185 0 92 2 171 6 174 3 3 1 12
-6 20 -8 10 -8 17 0 25 7 7 9 28 6 52 -3 23 -1 54 5 70 l12 29 32 -30 c18 -16
49 -40 70 -52z m-2089 -16 c13 -13 14 -47 9 -238 -3 -122 -5 -235 -5 -250 1
-24 -2 -28 -16 -22 -28 12 -96 14 -109 3 -8 -6 -17 -2 -28 16 -15 22 -16 49
-11 208 3 101 5 186 6 190 0 12 54 58 67 58 7 0 13 4 13 9 0 6 12 16 28 24 15
8 28 15 29 16 1 1 8 -6 17 -14z m-4209 -36 c5 -5 16 -9 25 -9 8 0 34 -17 57
-39 l43 -38 -6 -148 c-3 -82 -7 -152 -10 -157 -3 -4 -13 -4 -22 1 -9 5 -43 7
-74 5 -72 -4 -77 4 -72 106 2 41 4 126 5 188 0 112 0 113 22 106 12 -3 26 -10
32 -15z m6428 -26 c18 -10 34 -20 37 -23 3 -3 18 -14 33 -24 16 -9 34 -32 41
-49 12 -31 13 -55 6 -279 l-3 -106 -34 -4 c-39 -5 -53 6 -53 43 0 39 -17 80
-47 111 -26 27 -27 31 -28 170 0 139 2 178 12 178 3 0 19 -8 36 -17z m-2416
-55 c5 -13 8 -43 5 -68 -2 -25 -4 -106 -5 -181 l-1 -135 -71 1 c-85 2 -101 9
-108 42 -15 78 15 308 39 299 7 -3 18 2 25 10 7 8 18 13 25 10 7 -3 16 4 19
14 3 11 12 17 20 14 7 -3 16 -1 20 5 10 17 21 13 32 -11z m-3816 -17 c13 -10
42 -24 63 -32 57 -21 69 -46 69 -143 -1 -108 -8 -120 -72 -123 -28 -1 -53 2
-56 7 -3 4 -14 6 -25 3 -19 -5 -20 0 -20 151 0 86 4 156 9 156 4 0 19 -8 32
-19z m6428 -35 c7 -8 31 -24 54 -36 80 -41 78 -38 76 -192 -1 -120 -4 -139
-20 -154 -11 -10 -19 -12 -19 -6 0 8 -20 11 -60 8 -52 -3 -62 0 -71 16 -6 12
-8 78 -5 176 3 86 5 167 6 180 0 25 22 29 39 8z m-2828 -38 c1 -7 1 -71 1
-143 -1 -108 -4 -132 -18 -142 -10 -7 -24 -9 -39 -3 -14 5 -26 5 -34 -3 -8 -8
-14 -8 -23 1 -7 7 -20 12 -29 12 -28 0 -36 71 -23 185 6 48 8 51 45 63 21 7
44 12 50 12 6 0 17 7 25 15 19 18 44 20 45 3z m-3368 -28 c9 0 19 -4 22 -10 3
-5 14 -10 24 -10 10 0 30 -9 44 -20 21 -17 24 -27 22 -67 -4 -97 3 -88 -74
-88 -96 2 -101 7 -101 120 0 50 3 95 7 98 3 4 14 0 23 -8 9 -8 24 -15 33 -15z
m6437 -60 c14 -8 32 -15 40 -16 36 -6 50 -43 50 -135 0 -79 -2 -89 -22 -103
-17 -12 -25 -13 -36 -4 -10 9 -18 9 -32 0 -13 -8 -21 -8 -25 -1 -4 5 -16 9
-28 7 -21 -3 -22 1 -27 122 -6 141 2 177 35 156 11 -7 31 -19 45 -26z m-3280
-6 c8 -8 13 -36 12 -65 -5 -136 3 -126 -92 -124 -44 1 -85 6 -91 12 -8 8 -7
30 3 79 10 55 17 70 33 73 11 2 23 8 26 13 4 6 21 12 39 14 19 2 36 6 38 9 9
9 19 5 32 -11z m-2872 -44 c29 -11 32 -16 32 -57 0 -30 -4 -42 -11 -37 -6 4
-39 7 -73 6 -33 0 -67 4 -73 10 -13 11 -18 84 -7 111 5 13 12 13 52 -3 26 -10
62 -24 80 -30z m2661 -37 c17 -59 -2 -138 -24 -103 -4 7 -12 7 -23 1 -10 -6
-23 -6 -35 1 -12 6 -23 6 -32 -2 -11 -9 -18 -7 -34 9 -30 30 -23 84 11 87 7 0
26 6 41 12 16 7 34 12 42 12 8 0 17 5 20 10 12 19 24 10 34 -27z m3693 1 c15
-8 33 -14 41 -14 29 0 46 -35 49 -100 l3 -65 -69 0 c-93 0 -105 15 -101 123 1
42 3 78 4 80 2 5 42 -9 73 -24z m-6148 -37 c20 -20 14 -36 -7 -19 -7 6 -18 7
-25 3 -20 -12 -83 -5 -93 10 -5 8 -9 23 -9 35 0 21 1 21 58 5 32 -9 67 -24 76
-34z m2234 -9 c21 -21 14 -46 -15 -51 -53 -9 -105 -3 -117 15 -14 23 -6 29 44
33 22 1 44 5 47 9 10 10 28 7 41 -6z m4137 -37 c5 -5 22 -11 37 -15 15 -3 30
-15 33 -26 9 -29 -4 -61 -23 -58 -9 1 -23 -1 -29 -5 -7 -4 -21 -3 -31 2 -10 5
-27 8 -38 5 -31 -7 -45 10 -45 57 -1 24 -1 48 0 53 1 10 80 -1 96 -13z m183
-53 c6 2 12 -1 12 -6 0 -6 11 -13 25 -16 14 -4 25 -11 25 -17 0 -6 -9 -9 -20
-6 -11 3 -22 2 -25 -3 -6 -9 -56 -6 -73 4 -13 8 -16 48 -6 59 4 3 16 1 28 -5
11 -7 27 -11 34 -10z m-8071 -123 c29 -3 58 -3 65 2 18 10 78 12 78 1 0 -10
109 -8 115 2 2 4 26 4 52 0 47 -7 514 -15 663 -11 18 1 461 -9 475 -10 6 -1
35 -1 65 0 30 1 80 0 110 -1 30 -1 69 -1 85 -1 87 2 241 -3 250 -9 6 -3 44 -4
85 -1 41 2 82 4 90 3 8 -1 56 -3 105 -4 50 -2 95 -4 100 -5 23 -6 100 1 103
10 2 5 12 4 24 -2 17 -9 63 -11 173 -8 11 0 87 -2 169 -4 82 -2 166 -1 188 3
21 4 41 4 44 -1 5 -9 186 -14 339 -9 28 1 71 -1 97 -4 26 -2 50 0 53 5 4 5 13
5 23 0 9 -5 60 -9 112 -9 52 0 127 -1 165 -1 39 0 79 -1 90 -2 11 0 106 -2
210 -4 105 -3 214 -6 243 -7 28 -2 54 2 56 7 2 6 10 6 22 -1 11 -6 72 -11 139
-12 66 0 120 -1 120 -2 0 -3 494 -11 793 -13 l272 -2 9 -31 c11 -40 2 -120
-15 -135 -8 -7 -19 -7 -31 -1 -25 14 -190 9 -205 -6 -8 -8 -15 -8 -23 -2 -9 7
-16 5 -25 -5 -7 -8 -18 -15 -26 -15 -7 0 -17 -6 -21 -13 -4 -7 -30 -31 -57
-55 -37 -32 -54 -40 -72 -36 -15 4 -24 2 -24 -5 0 -6 -9 -11 -19 -11 -11 0
-22 -4 -26 -10 -3 -5 -12 -7 -20 -3 -8 3 -15 0 -15 -6 0 -6 -7 -19 -15 -28
-13 -15 -32 -18 -124 -17 -60 1 -113 4 -118 7 -5 3 -15 2 -23 -3 -9 -5 -19 -5
-27 2 -7 6 -21 7 -30 3 -10 -5 -22 -7 -28 -5 -5 2 -110 4 -233 5 -122 1 -225
5 -229 8 -3 4 -13 2 -23 -3 -10 -5 -21 -6 -25 -2 -9 10 -175 10 -175 0 0 -4
-10 -4 -22 1 -13 4 -92 8 -176 9 -85 0 -156 3 -160 6 -3 3 -11 1 -18 -5 -8 -6
-19 -7 -26 -2 -7 4 -98 9 -203 10 -104 1 -212 3 -238 6 -26 2 -50 0 -53 -5 -3
-4 -14 -3 -25 3 -14 7 -24 7 -33 0 -7 -6 -16 -8 -20 -4 -4 4 -80 8 -169 9 -89
1 -166 2 -172 4 -5 1 -12 1 -15 0 -14 -6 -102 -5 -106 2 -3 4 -15 4 -27 -1
-12 -4 -33 -5 -47 -1 -14 3 -43 3 -65 -1 -22 -4 -47 -3 -55 1 -9 5 -22 5 -30
0 -8 -5 -19 -6 -24 -2 -6 3 -128 7 -271 9 -143 2 -278 3 -300 4 -22 1 -44 0
-50 -1 -5 -1 -12 -1 -15 0 -14 7 -310 5 -310 -3 0 -4 -6 -5 -12 0 -7 4 -42 9
-78 10 -36 1 -132 3 -213 6 -81 2 -150 0 -153 -5 -3 -5 -11 -5 -17 0 -7 5
-100 10 -207 11 -107 1 -211 3 -230 4 -19 1 -42 -1 -50 -4 -8 -4 -39 -3 -69 2
-34 5 -59 5 -66 -1 -7 -6 -15 -6 -19 -2 -4 4 -121 7 -260 8 -139 0 -256 3
-262 6 -13 7 -87 3 -102 -6 -7 -4 -18 -4 -25 1 -14 11 -162 11 -173 1 -3 -4
-15 -3 -26 3 -14 7 -23 7 -33 -1 -8 -6 -16 -7 -19 -2 -3 5 -48 9 -101 8 l-95
-1 -6 32 c-3 18 -4 70 0 115 3 46 6 118 6 161 0 46 4 76 9 72 5 -3 12 -2 14 2
6 10 590 8 664 -2z m6133 -121 c19 -19 19 -22 5 -51 -27 -54 -63 -83 -96 -76
-18 3 -29 1 -29 -6 0 -21 -30 -11 -34 12 -18 88 -17 111 5 128 32 24 123 20
149 -7z m190 16 c36 2 85 2 110 0 25 -1 76 -1 114 0 64 1 85 -7 86 -31 0 -16
-123 -124 -138 -121 -45 8 -168 9 -172 1 -12 -19 -65 7 -82 40 -9 19 -26 44
-37 58 -36 41 -22 67 29 56 14 -2 54 -4 90 -3z m495 -30 c22 -35 10 -89 -21
-90 -15 0 -85 91 -81 104 5 16 60 24 77 12 8 -6 19 -18 25 -26z m-4505 -3087
c0 -13 -3 -13 -15 -3 -8 7 -12 16 -9 21 8 13 24 1 24 -18z"/>
<path d="M34480 7950 c0 -13 11 -13 30 0 12 8 11 10 -7 10 -13 0 -23 -4 -23
-10z"/>
<path d="M34334 7854 c-5 -34 -3 -48 7 -55 19 -12 26 -1 31 48 3 38 -4 53 -27
53 -2 0 -7 -21 -11 -46z"/>
<path d="M34467 7879 c4 -13 9 -17 15 -11 11 11 3 32 -12 32 -4 0 -6 -9 -3
-21z"/>
<path d="M32035 7836 c-10 -14 -20 -47 -23 -72 -4 -41 -3 -46 14 -42 13 3 18
11 16 27 -1 12 5 38 14 57 22 46 4 69 -21 30z"/>
<path d="M34292 7813 c2 -9 8 -18 15 -20 7 -3 9 3 6 16 -6 25 -26 28 -21 4z"/>
<path d="M34460 7821 c0 -5 7 -11 15 -15 9 -3 15 0 15 9 0 8 -7 15 -15 15 -8
0 -15 -4 -15 -9z"/>
<path d="M34337 7774 c-8 -8 3 -34 14 -34 11 0 12 27 0 34 -4 3 -11 3 -14 0z"/>
</g>
</svg>
